<svg width="9" height="12" viewBox="0 0 9 12" fill="none" xmlns="http://www.w3.org/2000/svg">
<path d="M8.5 1.25C8.5 1.94036 7.94036 2.5 7.25 2.5C6.55964 2.5 6 1.94036 6 1.25C6 0.559644 6.55964 0 7.25 0C7.94036 0 8.5 0.559644 8.5 1.25Z" fill="#5A5B72"/>
<path d="M8.5 5.75C8.5 6.44036 7.94036 7 7.25 7C6.55964 7 6 6.44036 6 5.75C6 5.05964 6.55964 4.5 7.25 4.5C7.94036 4.5 8.5 5.05964 8.5 5.75Z" fill="#5A5B72"/>
<path d="M8.5 10.25C8.5 10.9404 7.94036 11.5 7.25 11.5C6.55964 11.5 6 10.9404 6 10.25C6 9.55964 6.55964 9 7.25 9C7.94036 9 8.5 9.55964 8.5 10.25Z" fill="#5A5B72"/>
<path d="M2.5 1.25C2.5 1.94036 1.94036 2.5 1.25 2.5C0.559644 2.5 0 1.94036 0 1.25C0 0.559644 0.559644 0 1.25 0C1.94036 0 2.5 0.559644 2.5 1.25Z" fill="#5A5B72"/>
<path d="M2.5 5.75C2.5 6.44036 1.94036 7 1.25 7C0.559644 7 0 6.44036 0 5.75C0 5.05964 0.559644 4.5 1.25 4.5C1.94036 4.5 2.5 5.05964 2.5 5.75Z" fill="#5A5B72"/>
<path d="M2.5 10.25C2.5 10.9404 1.94036 11.5 1.25 11.5C0.559644 11.5 0 10.9404 0 10.25C0 9.55964 0.559644 9 1.25 9C1.94036 9 2.5 9.55964 2.5 10.25Z" fill="#5A5B72"/>
</svg>
