<svg width="20" height="20" viewBox="0 0 20 20" fill="none" xmlns="http://www.w3.org/2000/svg">
<path d="M14.4917 13.0583L11.125 10H8.86669L5.50002 13.0583C4.55836 13.9083 4.25002 15.2167 4.70836 16.4C5.16669 17.575 6.28336 18.3333 7.54169 18.3333H12.45C13.7167 18.3333 14.825 17.575 15.2834 16.4C15.7417 15.2167 15.4334 13.9083 14.4917 13.0583ZM11.5167 15.1167H8.48336C8.16669 15.1167 7.91669 14.8583 7.91669 14.55C7.91669 14.2417 8.17502 13.9833 8.48336 13.9833H11.5167C11.8334 13.9833 12.0834 14.2417 12.0834 14.55C12.0834 14.8583 11.825 15.1167 11.5167 15.1167Z" fill="#83838F"/>
<path d="M15.2916 3.6C14.8333 2.425 13.7166 1.66667 12.4583 1.66667H7.54164C6.2833 1.66667 5.16664 2.425 4.7083 3.6C4.2583 4.78333 4.56664 6.09167 5.5083 6.94167L8.87497 10H11.1333L14.5 6.94167C15.4333 6.09167 15.7416 4.78333 15.2916 3.6ZM11.5166 6.025H8.4833C8.16664 6.025 7.91664 5.76667 7.91664 5.45833C7.91664 5.15 8.17497 4.89167 8.4833 4.89167H11.5166C11.8333 4.89167 12.0833 5.15 12.0833 5.45833C12.0833 5.76667 11.825 6.025 11.5166 6.025Z" fill="#83838F"/>
</svg>
